<?xml version="1.0" encoding="UTF-8" standalone="no"?>
<!-- Uploaded to: SVG Repo, www.svgrepo.com, Generator: SVG Repo Mixer Tools -->

<svg
   width="800px"
   height="800px"
   viewBox="0 0 48 48"
   id="a"
   version="1.1"
   sodipodi:docname="recipe2.svg"
   inkscape:version="1.3.2 (091e20e, 2023-11-25)"
   xmlns:inkscape="http://www.inkscape.org/namespaces/inkscape"
   xmlns:sodipodi="http://sodipodi.sourceforge.net/DTD/sodipodi-0.dtd"
   xmlns="http://www.w3.org/2000/svg"
   xmlns:svg="http://www.w3.org/2000/svg">
  <sodipodi:namedview
     id="namedview9"
     pagecolor="#ffffff"
     bordercolor="#000000"
     borderopacity="0.25"
     inkscape:showpageshadow="2"
     inkscape:pageopacity="0.0"
     inkscape:pagecheckerboard="0"
     inkscape:deskcolor="#d1d1d1"
     inkscape:zoom="0.40125"
     inkscape:cx="14.953271"
     inkscape:cy="685.35826"
     inkscape:window-width="1392"
     inkscape:window-height="1027"
     inkscape:window-x="198"
     inkscape:window-y="69"
     inkscape:window-maximized="0"
     inkscape:current-layer="g9" />
  <defs
     id="defs1">
    <style
       id="style1">.b{fill:none;stroke:#000000;stroke-linecap:round;stroke-linejoin:round;}</style>
  </defs>
  <g
     id="g9">
    <path
       class="b"
       d="M24,24.4682H5.5c0,9.2155,11.597,17.1393,11.597,17.1393h6.903"
       id="path1"
       style="stroke:#e84213;stroke-opacity:1" />
    <path
       class="b"
       d="M10.8843,26.5736c0,6.7924,7.6278,11.8041,7.6278,11.8041"
       id="path2"
       style="stroke:#e84213;stroke-opacity:1" />
    <path
       class="b"
       d="M24,24.4682h18.5c0,9.2155-11.597,17.1393-11.597,17.1393h-6.903"
       id="path3"
       style="stroke:#e84213;stroke-opacity:1" />
    <path
       class="b"
       d="M14.0942,24.4682c-1.3461-5.0392,7.6541-8.5034,15.7305-9.5733l.7892-1.4542,3.184,3.87-1.7473,.2847c-.8542,2.8087-5.1347,6.8728-5.1347,6.8728"
       id="path4"
       style="stroke:#e84213;stroke-opacity:1" />
    <path
       class="b"
       d="M15.5093,24.4682c.2883-2.5946,3.2968-5.5138,14.7724-9.0189"
       id="path5"
       style="stroke:#e84213;stroke-opacity:1" />
    <path
       class="b"
       d="M30.5784,15.8092c-4.3403,2.1744-9.4,4.6725-12.9464,8.659"
       id="path6"
       style="stroke:#e84213;stroke-opacity:1" />
    <path
       class="b"
       d="M31.4253,16.8367c-4.5094,6.1259-7.4253,7.6315-7.4253,7.6315"
       id="path7"
       style="stroke:#e84213;stroke-opacity:1" />
    <path
       class="b"
       d="M21.5047,24.4682c2.7196-1.5897,9.4897-8.1542,9.4897-8.1542"
       id="path8"
       style="stroke:#e84213;stroke-opacity:1" />
    <path
       class="b"
       d="M33.0768,16.4532l8.1513-6.6057c.5628-.4561,.6493-1.282,.1932-1.8447h0c-.4561-.5628-1.282-.6493-1.8447-.1932l-8.1513,6.6057"
       id="path9"
       style="stroke:#e84213;stroke-opacity:1" />
  </g>
  <line
     class="b"
     x1="29.8248"
     y1="14.8949"
     x2="32.0506"
     y2="17.5954"
     id="line9"
     style="stroke:#e84213;stroke-opacity:1" />
</svg>
